{"title":"Abalone Wars S01E02 x264 *Audio Fixed*","uid":7836406,"size":418943134,"categoryP":"video","categoryS":"tv_shows","magnet":"?xt=urn:btih:ad2538a77c06bbc89ddcc954e49cdd9cec6af061&amp;dn=Abalone+Wars+S01E02+x264+%2AAudio+Fixed%2A&amp;tr=udp%3A%2F%2Ftracker.openbittorrent.com%3A80&amp;tr=udp%3A%2F%2Fopen.demonii.com%3A1337&amp;tr=udp%3A%2F%2Ftracker.coppersurfer.tk%3A6969&amp;tr=udp%3A%2F%2Fexodus.desync.com%3A6969","seeders":2,"leechers":0,"uploader":"KaLaNco69","files":-1,"time":1353198389,"description":"***Audio Re-encoded***\n\nAbalone.Wars.S01E02.mp4\n\nGeneral\n\nFormat                                   : MPEG-4\nFormat profile                           : Base Media / Version 2\nCodec ID                                 : mp42\nFile size                                : 400 MiB\nDuration                                 : 41mn 58s\nOverall bit rate mode                    : Variable\nOverall bit rate                         : 1 331 Kbps\n\n\nVideo\n\nID                                       : 2\nFormat                                   : AVC\nFormat/Info                              : Advanced Video Codec\nFormat profile                           : &lt;a class=&quot;__cf_email__&quot; href=&quot;/cdn-cgi/l/email-protection&quot; data-cfemail=&quot;460e2f212e060a756876&quot;&gt;[email&amp;#160;protected]&lt;/a&gt;&lt;script cf-hash='f9e31' type=&quot;text/javascript&quot;&gt;\n/* &lt;![CDATA[ */!function(){try{var t=&quot;currentScript&quot;in document?document.currentScript:function(){for(var t=document.getElementsByTagName(&quot;script&quot;),e=t.length;e--;)if(t[e].getAttribute(&quot;cf-hash&quot;))return t[e]}();if(t&amp;&amp;t.previousSibling){var e,r,n,i,c=t.previousSibling,a=c.getAttribute(&quot;data-cfemail&quot;);if(a){for(e=&quot;&quot;,r=parseInt(a.substr(0,2),16),n=2;a.length-n;n+=2)i=parseInt(a.substr(n,2),16)^r,e+=String.fromCharCode(i);e=document.createTextNode(e),c.parentNode.replaceChild(e,c)}}}catch(u){}}();/* ]]&gt; */&lt;/script&gt;\nFormat settings, CABAC                   : Yes\nFormat settings, ReFrames                : 3 frames\nCodec ID                                 : avc1\nCodec ID/Info                            : Advanced Video Coding\nDuration                                 : 41mn 58s\nBit rate mode                            : Variable\nBit rate                                 : 1 200 Kbps\nMaximum bit rate                         : 2 000 Kbps\nWidth                                    : 700 pixels\nHeight                                   : 392 pixels\nDisplay aspect ratio                     : 16:9\nFrame rate mode                          : Constant\nFrame rate                               : 25.000 fps\nColor space                              : YUV\nChroma subsampling                       : 4:2:0\nBit depth                                : 8 bits\nScan type                                : Progressive\nBits/(Pixel*Frame)                       : 0.175\nStream size                              : 360 MiB (90%)\nWriting library                          : x264 core 114\n\n\nAudio\nID                                       : 1\nFormat                                   : AAC\nFormat/Info                              : Advanced Audio Codec\nFormat profile                           : LC\nCodec ID                                 : 40\nDuration                                 : 41mn 58s\nBit rate mode                            : Variable\nBit rate                                 : 128 Kbps\nMaximum bit rate                         : 576 Kbps\nChannel(s)                               : 2 channels\nChannel positions                        : Front: L R\nSampling rate                            : 48.0 KHz\nCompression mode                         : Lossy\nStream size                              : 38.4 MiB (10%)","torrent":{"xt":"urn:btih:ad2538a77c06bbc89ddcc954e49cdd9cec6af061","amp;dn":"Abalone+Wars+S01E02+x264+%2AAudio+Fixed%2A","amp;tr":["udp%3A%2F%2Ftracker.openbittorrent.com%3A80","udp%3A%2F%2Fopen.demonii.com%3A1337","udp%3A%2F%2Ftracker.coppersurfer.tk%3A6969","udp%3A%2F%2Fexodus.desync.com%3A6969"],"infoHash":"ad2538a77c06bbc89ddcc954e49cdd9cec6af061","infoHashBuffer":{"type":"Buffer","data":[173,37,56,167,124,6,187,200,157,220,201,84,228,156,221,156,236,106,240,97]},"announce":[],"urlList":[]}}